<svg version="1.1"  xmlns="http://www.w3.org/2000/svg" xmlns:xlink="http://www.w3.org/1999/xlink">
  <symbol id="icon-timer"  x="0px" y="0px" fill="#dedede" viewBox="0 0 298 345.097" enable-background="new 0 0 298 345.097" xml:space="preserve">
    <path d="M264.568,102.055l5.355-5.355c7.717-7.717,9.124-18.938,3.126-24.935c-5.997-5.997-17.217-4.59-24.934,3.127l-5.386,5.385 C221.768,63.292,196.11,51.875,168,48.297v-9.583h7.658c10.914,0,19.843-8.711,19.843-19.357S186.573,0,175.659,0h-53.317  c-10.913,0-19.842,8.711-19.842,19.357s8.929,19.357,19.842,19.357H130v9.583C56.681,57.629,0,120.244,0,196.097  c0,82.291,66.709,149,149,149c82.29,0,149-66.709,149-149C298,160.434,285.465,127.703,264.568,102.055z M149,306.264 c-60.844,0-110.167-49.323-110.167-110.167S88.156,85.93,149,85.93c60.843,0,110.167,49.323,110.167,110.167  S209.843,306.264,149,306.264z"/>
  </symbol>

  <symbol id="icon-twitter" x="0px" y="0px" width="17.5px" height="14.663px" viewBox="0 0 17.5 14.663" enable-background="new 0 0 17.5 14.663" xml:space="preserve">
    <g id="W6EeEF_1_">
      <g>
        <path fill-rule="evenodd" clip-rule="evenodd" d="M11.283,0.153c1.736-0.485,3.074,0.263,3.685,1.151 c0.694-0.226,1.372-0.47,2.072-0.691c-0.004,0.841-0.538,1.478-0.883,1.727C16.861,2.506,17.5,1.86,17.5,1.86 c-0.175,0.976-1.035,1.746-1.611,1.977C15.65,10.429,12.617,14.793,5.507,14.66c-0.538,0,0.077,0-0.46,0 c-0.422,0-4.29-0.45-5.047-1.843c2.341,0.192,4.011-0.412,4.835-1.15c-0.989-0.293-2.761-0.464-3.07-2.881 c0.362,0.105,0.583,0.223,1.228,0.117C1.757,8.067,0.385,7.366,0.461,5.218c0.294,0.32,1.1,0.523,1.381,0.461 c-0.725-0.235-2.03-3.281-0.921-4.836C2.794,2.654,4.769,4.364,8.29,4.528C8.506,2.288,9.461,0.787,11.283,0.153z"/>
      </g>
    </g>
  </symbol>

  <symbol id="icon-facebook" x="0px" y="0px" width="8.673px" height="18.944px" viewBox="0 0 8.673 18.944" enable-background="new 0 0 8.673 18.944" xml:space="preserve">
      <path d="M6.275,3.357c0.799,0,1.599,0,2.398,0c0-1.119,0-2.238,0-3.357c-0.959,0-1.92,0-2.878,0C2.656,0.181,1.54,2.387,1.948,6.115 H0v3.517h1.958c0,3.104,0,6.208,0,9.312c1.279,0,2.558,0,3.837,0c0-3.104,0-6.208,0-9.312h2.857V6.115H5.786 C5.765,5.07,5.75,3.709,6.275,3.357z"/>
  </symbol>

  <symbol id="icon-youtube" x="0px" y="0px" width="14.64px" height="13.96px" viewBox="0 0 14.64 13.96" enable-background="new 0 0 14.64 13.96" xml:space="preserve">
    <path d="M1.775,13.78C0.799,14.257,0,13.758,0,12.671V1.29c0-1.088,0.799-1.585,1.775-1.109l12.133,5.932 c0.975,0.478,0.975,1.258,0,1.736L1.775,13.78z"/>
  </symbol>

  <symbol id="icon-menu-cross" x="0px" y="0px" width="23.867px" height="23.867px" viewBox="0 0 23.867 23.867" enable-background="new 0 0 23.867 23.867" xml:space="preserve">
    <path fill="inherit" d="M15.087,11.933l8.56-8.559c0.293-0.293,0.293-0.768,0-1.061L21.554,0.22C21.414,0.079,21.223,0,21.023,0 c-0.199,0-0.391,0.079-0.529,0.22l-8.561,8.56l-8.56-8.56c-0.282-0.282-0.78-0.282-1.061,0L0.22,2.313 c-0.293,0.293-0.293,0.768,0,1.061l8.56,8.559l-8.56,8.559c-0.293,0.293-0.293,0.768,0,1.062l2.093,2.094 c0.141,0.142,0.331,0.22,0.53,0.22c0.199,0,0.39-0.078,0.53-0.22l8.561-8.56l8.56,8.56c0.141,0.142,0.332,0.22,0.53,0.22 c0.199,0,0.39-0.078,0.53-0.22l2.093-2.094c0.293-0.294,0.293-0.769,0-1.062L15.087,11.933z"/>
  </symbol>

  <symbol id="icon-menu-burger" x="0px" y="0px" width="50px" height="24px" viewBox="13 0 24 24" enable-background="new 0 0 24 24" xml:space="preserve">
    <g>
      <g>
        <g>
          <path fill="inherit" d="M1.137,0C0.51,0,0,0.428,0,1.01v1.981c0,0.558,0.494,1.01,1.139,1.01h47.671 c0.628,0,1.138-0.428,1.138-1.01V1.01c0-0.558-0.494-1.01-1.138-1.01H1.137z M1.137,10.003C0.51,10.003,0,10.431,0,11.013v1.98 c0,0.557,0.494,1.01,1.139,1.01h47.671c0.628,0,1.138-0.428,1.138-1.01v-1.98c0-0.558-0.494-1.01-1.138-1.01H1.137z M1.137,20.005C0.51,20.005,0,20.434,0,21.016v1.981c0,0.557,0.494,1.01,1.139,1.01h47.671c0.628,0,1.138-0.428,1.138-1.01 v-1.981c0-0.558-0.494-1.011-1.138-1.011H1.137z"/>
        </g>
        <g>
          <path fill="inherit" d="M1.137,0C0.51,0,0,0.428,0,1.01v1.981c0,0.558,0.494,1.01,1.139,1.01h47.671 c0.628,0,1.138-0.428,1.138-1.01V1.01c0-0.558-0.494-1.01-1.138-1.01H1.137z M1.137,10.003C0.51,10.003,0,10.431,0,11.013v1.98 c0,0.557,0.494,1.01,1.139,1.01h47.671c0.628,0,1.138-0.428,1.138-1.01v-1.98c0-0.558-0.494-1.01-1.138-1.01H1.137z M1.137,20.005C0.51,20.005,0,20.434,0,21.016v1.981c0,0.557,0.494,1.01,1.139,1.01h47.671c0.628,0,1.138-0.428,1.138-1.01 v-1.981c0-0.558-0.494-1.011-1.138-1.011H1.137z"/>
        </g>
      </g>
    </g>
  </symbol>

  <symbol id="icon-editor-crop" x="0px" y="0px" viewBox="0 0 48 48" enable-background="new 0 0 48 48" xml:space="preserve">
    <path fill="none" d="M0,0h48v48H0V0z"/>
    <path fill="inherit" d="M34,30h4V14c0-2.21-1.79-4-4-4H18v4h16V30z M14,34V2h-4v8H2v4h8v20c0,2.21,1.79,4,4,4h20v8h4v-8h8v-4H14z"/>
  </symbol>

  <symbol id="icon-editor-fill" x="0px" y="0px" viewBox="0 0 44 44" enable-background="new 0 0 44 44" xml:space="preserve">
    <path fill="none" d="M0,0h48v48H0V0z"/>
    <path fill="inherit" d="M33.12,17.88L15.24,0l-2.83,2.83l4.76,4.76L6.88,17.88c-1.17,1.17-1.17,3.07,0,4.24l11,11C18.46,33.71,19.23,34,20,34 s1.54-0.29,2.12-0.88l11-11C34.29,20.95,34.29,19.05,33.12,17.88z M10.41,20L20,10.42L29.59,20H10.41z M38,23c0,0-4,4.33-4,7 c0,2.21,1.79,4,4,4s4-1.79,4-4C42,27.33,38,23,38,23z"/>
    <rect y="40" width="48" height="3"/>
  </symbol>

  <symbol id="icon-editor-contrast" x="0px" y="0px" viewBox="-35.422 -7.96 31.92 31.92" enable-background="new -35.422 -7.96 31.92 31.92" xml:space="preserve">
    <path fill="inherit" d="M-19.462-3.96c6.595,0,11.96,5.365,11.96,11.96s-5.365,11.96-11.96,11.96S-31.422,14.595-31.422,8 S-26.057-3.96-19.462-3.96 M-19.462-7.96c-8.814,0-15.96,7.145-15.96,15.96c0,8.813,7.146,15.96,15.96,15.96S-3.502,16.813-3.502,8 C-3.502-0.815-10.648-7.96-19.462-7.96L-19.462-7.96z"/>
    <path fill="inherit" d="M-19.462,16.331c4.706,0,8.52-3.813,8.52-8.52c0-4.705-3.813-8.519-8.52-8.519"/>
  </symbol>

  <symbol id="icon-editor-diagram-fill" x="0px" y="0px" width="14px" height="14px" viewBox="0 0 14 14">
    <circle fill="inherit" stroke="#d22856" stroke-width="2" r="5" cx="7" cy="7"></circle>
  </symbol>

</svg>
